<?xml version="1.0" encoding="utf-8"?>
<svg version="1.1" id="Layer_1" xmlns="http://www.w3.org/2000/svg" xmlns:xlink="http://www.w3.org/1999/xlink" x="0px" y="0px"
	 viewBox="0 0 100 100" style="enable-background:new 0 0 100 100;" xml:space="preserve">
<g>
	<path d="M85.39,25.41h-9.81C72.9,13.75,62.45,5.03,50,5.03s-22.9,8.72-25.57,20.37H14.2c-5.04,0-9.14,4.1-9.14,9.14V70.1
		c0,5.04,4.1,9.14,9.14,9.14h27.47l-5.21,14.35h-7.4c-0.28,0-0.5,0.22-0.5,0.5s0.22,0.5,0.5,0.5h41.47c0.28,0,0.5-0.22,0.5-0.5
		s-0.22-0.5-0.5-0.5h-7.4l-5.21-14.35h27.47c5.04,0,9.14-4.1,9.14-9.14V34.55C94.53,29.51,90.43,25.41,85.39,25.41z M24.77,30.78
		c0.08-4.07,1.12-7.9,2.91-11.28h9.79c-1.82,3.55-3.14,7.61-3.2,12.01c-0.06,3.93,0.86,7.79,2.75,11.54h-9.33
		c-1.79-3.38-2.83-7.21-2.91-11.28h1.49v-1H24.77z M64.7,31.78c0.02,3.84-0.94,7.6-2.87,11.28H50.5V19.5h10.88
		c1.78,3.33,3.09,7.15,3.29,11.28h-0.41v1H64.7z M50.5,44.06h10.78c-2.37,4.13-5.97,8.14-10.78,12.01V44.06z M49.5,56.09
		c-4.82-3.87-8.44-7.89-10.81-12.03H49.5V56.09z M50.5,18.5V6.48c1.8,1.47,6.77,5.85,10.32,12.02H50.5z M49.5,18.5H39.14
		C42.72,12.29,47.72,7.9,49.5,6.45V18.5z M49.5,19.5v11.28h-1.25v1h1.25v11.28H38.14c-1.96-3.75-2.93-7.6-2.87-11.52
		c0.07-4.42,1.44-8.49,3.32-12.03H49.5z M37.54,44.06c2.35,4.28,5.97,8.43,10.83,12.41c-8.58-0.55-16-5.4-20.14-12.41H37.54z
		 M62.42,44.06h9.34c-4.14,7.02-11.58,11.88-20.18,12.41C56.45,52.48,60.07,48.34,62.42,44.06z M72.32,43.06h-9.36
		c1.84-3.67,2.76-7.43,2.74-11.28h0.56v-1h-0.59c-0.19-4.12-1.45-7.93-3.17-11.28h9.82c1.86,3.52,2.92,7.53,2.92,11.78
		S74.18,39.54,72.32,43.06z M71.76,18.5h-9.79c-3.39-6.11-8.18-10.56-10.37-12.41C60.18,6.63,67.62,11.48,71.76,18.5z M48.37,6.09
		C46.17,7.95,41.39,12.4,38,18.5h-9.76C32.37,11.49,39.8,6.64,48.37,6.09z M14.2,26.41h10.02c-0.3,1.58-0.46,3.21-0.46,4.87
		c0,14.47,11.77,26.25,26.25,26.25s26.25-11.77,26.25-26.25c0-1.67-0.16-3.29-0.46-4.87h9.6c4.49,0,8.14,3.65,8.14,8.14v31.9H6.05
		v-31.9C6.05,30.06,9.71,26.41,14.2,26.41z M62.06,93.59H37.52l5.21-14.35h14.13L62.06,93.59z M85.39,78.24H14.2
		c-4.49,0-8.14-3.65-8.14-8.14v-2.65h87.47v2.65C93.53,74.59,89.88,78.24,85.39,78.24z"
		fill="#8CC63E"/>
	<rect x="24.25" y="30.78" width="19" height="3" fill="#FFDA00"/>
	<rect x="44.25" y="30.78" width="15" height="3" fill="#0033A0"/>
	<rect x="60.25" y="30.78" width="15" height="3" fill="#EF4135"/>
</g>
</svg>