<svg xmlns="http://www.w3.org/2000/svg" class="iconAbove" viewBox="0 0 496.157 163"><g id="afca16b1-e684-43c1-ba74-1498580f3271" fill="#000"><path d="M6.51 9.65L2.83 9.65L2.30 11.12L2.30 11.12Q2.24 11.29 2.20 11.45L2.20 11.45L2.20 11.45Q2.17 11.61 2.17 11.72L2.17 11.72L2.17 11.72Q2.17 12.08 2.40 12.24L2.40 12.24L2.40 12.24Q2.63 12.41 3.10 12.41L3.10 12.41L3.42 12.41L3.42 13.00L0 13.00L0 12.41L0.27 12.41L0.27 12.41Q0.47 12.41 0.62 12.36L0.62 12.36L0.62 12.36Q0.76 12.32 0.88 12.20L0.88 12.20L0.88 12.20Q0.99 12.07 1.10 11.86L1.10 11.86L1.10 11.86Q1.20 11.65 1.33 11.31L1.33 11.31L4.44 3.00L5.53 3.00L8.70 11.66L8.70 11.66Q8.78 11.88 8.86 12.02L8.86 12.02L8.86 12.02Q8.95 12.17 9.06 12.25L9.06 12.25L9.06 12.25Q9.18 12.34 9.33 12.37L9.33 12.37L9.33 12.37Q9.48 12.41 9.69 12.41L9.69 12.41L9.87 12.41L9.87 13.00L6.02 13.00L6.02 12.41L6.34 12.41L6.34 12.41Q7.18 12.41 7.18 11.74L7.18 11.74L7.18 11.74Q7.18 11.62 7.15 11.50L7.15 11.50L7.15 11.50Q7.12 11.38 7.07 11.22L7.07 11.22L6.51 9.65ZM6.25 8.95L5.39 6.50L5.39 6.50Q5.17 5.88 4.99 5.34L4.99 5.34L4.99 5.34Q4.81 4.79 4.69 4.29L4.69 4.29L4.69 4.29Q4.64 4.54 4.58 4.77L4.58 4.77L4.58 4.77Q4.51 5.01 4.44 5.26L4.44 5.26L4.44 5.26Q4.36 5.50 4.27 5.77L4.27 5.77L4.27 5.77Q4.17 6.04 4.05 6.37L4.05 6.37L3.10 8.95L6.25 8.95ZM19.25 7.98L19.25 7.98L19.25 7.98Q19.25 9.13 18.96 10.06L18.96 10.06L18.96 10.06Q18.68 10.99 18.11 11.64L18.11 11.64L18.11 11.64Q17.54 12.29 16.69 12.64L16.69 12.64L16.69 12.64Q15.83 13.00 14.69 13.00L14.69 13.00L10.40 13.00L10.40 12.41L10.58 12.41L10.58 12.41Q10.82 12.41 11.03 12.37L11.03 12.37L11.03 12.37Q11.24 12.34 11.40 12.23L11.40 12.23L11.40 12.23Q11.55 12.13 11.64 11.93L11.64 11.93L11.64 11.93Q11.73 11.73 11.73 11.40L11.73 11.40L11.73 4.54L11.73 4.54Q11.73 4.23 11.64 4.04L11.64 4.04L11.64 4.04Q11.55 3.86 11.39 3.75L11.39 3.75L11.39 3.75Q11.23 3.65 11.02 3.62L11.02 3.62L11.02 3.62Q10.81 3.59 10.58 3.59L10.58 3.59L10.40 3.59L10.40 3.00L14.69 3.00L14.69 3.00Q15.77 3.00 16.62 3.33L16.62 3.33L16.62 3.33Q17.47 3.66 18.05 4.30L18.05 4.30L18.05 4.30Q18.63 4.94 18.94 5.87L18.94 5.87L18.94 5.87Q19.25 6.79 19.25 7.98ZM13.15 12.28L14.36 12.28L14.36 12.28Q15.20 12.28 15.82 12.00L15.82 12.00L15.82 12.00Q16.45 11.72 16.86 11.17L16.86 11.17L16.86 11.17Q17.28 10.62 17.49 9.82L17.49 9.82L17.49 9.82Q17.70 9.02 17.70 7.98L17.70 7.98L17.70 7.98Q17.70 5.90 16.87 4.80L16.87 4.80L16.87 4.80Q16.04 3.70 14.38 3.70L14.38 3.70L13.15 3.70L13.15 12.28ZM23.51 13.13L23.51 13.13L23.51 13.13Q22.83 13.13 22.30 12.99L22.30 12.99L22.30 12.99Q21.78 12.84 21.43 12.59L21.43 12.59L21.43 12.59Q21.08 12.33 20.90 11.97L20.90 11.97L20.90 11.97Q20.72 11.60 20.72 11.16L20.72 11.16L20.72 11.16Q20.72 10.74 20.98 10.48L20.98 10.48L20.98 10.48Q21.25 10.22 21.73 10.22L21.73 10.22L21.73 10.22Q21.75 10.66 21.86 11.06L21.86 11.06L21.86 11.06Q21.98 11.46 22.20 11.77L22.20 11.77L22.20 11.77Q22.43 12.08 22.78 12.26L22.78 12.26L22.78 12.26Q23.13 12.45 23.62 12.45L23.62 12.45L23.62 12.45Q24.56 12.45 25.09 11.99L25.09 11.99L25.09 11.99Q25.62 11.54 25.62 10.68L25.62 10.68L25.62 10.68Q25.62 10.30 25.51 10.01L25.51 10.01L25.51 10.01Q25.40 9.71 25.15 9.46L25.15 9.46L25.15 9.46Q24.90 9.21 24.48 8.99L24.48 8.99L24.48 8.99Q24.07 8.76 23.45 8.50L23.45 8.50L23.45 8.50Q22.80 8.24 22.32 7.93L22.32 7.93L22.32 7.93Q21.83 7.63 21.51 7.26L21.51 7.26L21.51 7.26Q21.19 6.88 21.03 6.43L21.03 6.43L21.03 6.43Q20.88 5.97 20.88 5.39L20.88 5.39L20.88 5.39Q20.88 4.79 21.11 4.32L21.11 4.32L21.11 4.32Q21.33 3.85 21.75 3.52L21.75 3.52L21.75 3.52Q22.16 3.20 22.72 3.03L22.72 3.03L22.72 3.03Q23.28 2.86 23.94 2.86L23.94 2.86L23.94 2.86Q24.57 2.86 25.05 2.99L25.05 2.99L25.05 2.99Q25.54 3.12 25.87 3.34L25.87 3.34L25.87 3.34Q26.21 3.55 26.38 3.84L26.38 3.84L26.38 3.84Q26.56 4.12 26.56 4.43L26.56 4.43L26.56 4.43Q26.56 4.88 26.26 5.11L26.26 5.11L26.26 5.11Q25.96 5.34 25.46 5.34L25.46 5.34L25.46 5.34Q25.46 5.01 25.38 4.69L25.38 4.69L25.38 4.69Q25.30 4.38 25.12 4.13L25.12 4.13L25.12 4.13Q24.93 3.88 24.63 3.72L24.63 3.72L24.63 3.72Q24.33 3.56 23.88 3.56L23.88 3.56L23.88 3.56Q23.48 3.56 23.16 3.67L23.16 3.67L23.16 3.67Q22.85 3.79 22.63 4.00L22.63 4.00L22.63 4.00Q22.41 4.20 22.29 4.50L22.29 4.50L22.29 4.50Q22.18 4.79 22.18 5.15L22.18 5.15L22.18 5.15Q22.18 5.57 22.29 5.89L22.29 5.89L22.29 5.89Q22.39 6.21 22.65 6.46L22.65 6.46L22.65 6.46Q22.91 6.72 23.32 6.95L23.32 6.95L23.32 6.95Q23.74 7.18 24.35 7.42L24.35 7.42L24.35 7.42Q24.96 7.68 25.45 7.96L25.45 7.96L25.45 7.96Q25.93 8.24 26.26 8.58L26.26 8.58L26.26 8.58Q26.60 8.93 26.78 9.35L26.78 9.35L26.78 9.35Q26.95 9.78 26.95 10.32L26.95 10.32L26.95 10.32Q26.95 10.99 26.71 11.51L26.71 11.51L26.71 11.51Q26.47 12.03 26.02 12.39L26.02 12.39L26.02 12.39Q25.57 12.76 24.93 12.94L24.93 12.94L24.93 12.94Q24.29 13.13 23.51 13.13ZM37.26 7.98L37.26 7.98L37.26 7.98Q37.26 9.14 36.97 10.09L36.97 10.09L36.97 10.09Q36.68 11.04 36.12 11.72L36.12 11.72L36.12 11.72Q35.56 12.39 34.74 12.76L34.74 12.76L34.74 12.76Q33.92 13.13 32.86 13.13L32.86 13.13L32.86 13.13Q31.75 13.13 30.92 12.76L30.92 12.76L30.92 12.76Q30.09 12.39 29.54 11.72L29.54 11.72L29.54 11.72Q29.00 11.04 28.72 10.09L28.72 10.09L28.72 10.09Q28.45 9.13 28.45 7.97L28.45 7.97L28.45 7.97Q28.45 6.81 28.72 5.86L28.72 5.86L28.72 5.86Q29.00 4.92 29.54 4.25L29.54 4.25L29.54 4.25Q30.09 3.58 30.93 3.21L30.93 3.21L30.93 3.21Q31.76 2.84 32.87 2.84L32.87 2.84L32.87 2.84Q33.93 2.84 34.75 3.21L34.75 3.21L34.75 3.21Q35.56 3.58 36.12 4.25L36.12 4.25L36.12 4.25Q36.68 4.92 36.97 5.87L36.97 5.87L36.97 5.87Q37.26 6.82 37.26 7.98ZM30.00 7.98L30.00 7.98L30.00 7.98Q30.00 9.02 30.16 9.84L30.16 9.84L30.16 9.84Q30.31 10.66 30.65 11.22L30.65 11.22L30.65 11.22Q30.99 11.79 31.54 12.08L31.54 12.08L31.54 12.08Q32.08 12.38 32.86 12.38L32.86 12.38L32.86 12.38Q33.64 12.38 34.18 12.08L34.18 12.08L34.18 12.08Q34.73 11.79 35.06 11.22L35.06 11.22L35.06 11.22Q35.40 10.66 35.55 9.84L35.55 9.84L35.55 9.84Q35.70 9.02 35.70 7.98L35.70 7.98L35.70 7.98Q35.70 6.95 35.55 6.13L35.55 6.13L35.55 6.13Q35.40 5.31 35.06 4.75L35.06 4.75L35.06 4.75Q34.73 4.19 34.19 3.90L34.19 3.90L34.19 3.90Q33.65 3.60 32.87 3.60L32.87 3.60L32.87 3.60Q32.09 3.60 31.55 3.90L31.55 3.90L31.55 3.90Q31.00 4.19 30.66 4.75L30.66 4.75L30.66 4.75Q30.31 5.31 30.16 6.13L30.16 6.13L30.16 6.13Q30.00 6.95 30.00 7.98ZM51.07 7.98L51.07 7.98L51.07 7.98Q51.07 9.13 50.78 10.06L50.78 10.06L50.78 10.06Q50.50 10.99 49.93 11.64L49.93 11.64L49.93 11.64Q49.36 12.29 48.51 12.64L48.51 12.64L48.51 12.64Q47.65 13.00 46.51 13.00L46.51 13.00L42.23 13.00L42.23 12.41L42.40 12.41L42.40 12.41Q42.64 12.41 42.85 12.37L42.85 12.37L42.85 12.37Q43.06 12.34 43.22 12.23L43.22 12.23L43.22 12.23Q43.37 12.13 43.46 11.93L43.46 11.93L43.46 11.93Q43.55 11.73 43.55 11.40L43.55 11.40L43.55 4.54L43.55 4.54Q43.55 4.23 43.46 4.04L43.46 4.04L43.46 4.04Q43.37 3.86 43.21 3.75L43.21 3.75L43.21 3.75Q43.05 3.65 42.84 3.62L42.84 3.62L42.84 3.62Q42.64 3.59 42.40 3.59L42.40 3.59L42.23 3.59L42.23 3.00L46.51 3.00L46.51 3.00Q47.59 3.00 48.44 3.33L48.44 3.33L48.44 3.33Q49.29 3.66 49.87 4.30L49.87 4.30L49.87 4.30Q50.46 4.94 50.76 5.87L50.76 5.87L50.76 5.87Q51.07 6.79 51.07 7.98ZM44.97 12.28L46.18 12.28L46.18 12.28Q47.02 12.28 47.64 12.00L47.64 12.00L47.64 12.00Q48.27 11.72 48.69 11.17L48.69 11.17L48.69 11.17Q49.10 10.62 49.31 9.82L49.31 9.82L49.31 9.82Q49.52 9.02 49.52 7.98L49.52 7.98L49.52 7.98Q49.52 5.90 48.69 4.80L48.69 4.80L48.69 4.80Q47.86 3.70 46.20 3.70L46.20 3.70L44.97 3.70L44.97 12.28ZM55.72 6.10L55.72 6.10L55.72 6.10Q54.94 6.10 54.52 6.74L54.52 6.74L54.52 6.74Q54.10 7.37 54.02 8.59L54.02 8.59L57.24 8.59L57.24 8.59Q57.24 8.03 57.16 7.57L57.16 7.57L57.16 7.57Q57.08 7.12 56.90 6.79L56.90 6.79L56.90 6.79Q56.72 6.46 56.43 6.28L56.43 6.28L56.43 6.28Q56.14 6.10 55.72 6.10ZM55.89 13.13L55.89 13.13L55.89 13.13Q55.13 13.13 54.53 12.88L54.53 12.88L54.53 12.88Q53.92 12.62 53.50 12.13L53.50 12.13L53.50 12.13Q53.09 11.63 52.87 10.92L52.87 10.92L52.87 10.92Q52.64 10.21 52.64 9.30L52.64 9.30L52.64 9.30Q52.64 7.33 53.45 6.34L53.45 6.34L53.45 6.34Q54.26 5.35 55.75 5.35L55.75 5.35L55.75 5.35Q56.42 5.35 56.96 5.56L56.96 5.56L56.96 5.56Q57.50 5.78 57.88 6.20L57.88 6.20L57.88 6.20Q58.26 6.62 58.46 7.24L58.46 7.24L58.46 7.24Q58.66 7.87 58.66 8.70L58.66 8.70L58.66 9.34L54.00 9.34L54.00 9.34Q54.01 10.10 54.15 10.65L54.15 10.65L54.15 10.65Q54.29 11.20 54.55 11.56L54.55 11.56L54.55 11.56Q54.82 11.92 55.20 12.08L55.20 12.08L55.20 12.08Q55.58 12.25 56.08 12.25L56.08 12.25L56.08 12.25Q56.44 12.25 56.76 12.17L56.76 12.17L56.76 12.17Q57.07 12.09 57.32 11.95L57.32 11.95L57.32 11.95Q57.57 11.81 57.77 11.64L57.77 11.64L57.77 11.64Q57.96 11.46 58.08 11.27L58.08 11.27L58.08 11.27Q58.18 11.31 58.27 11.44L58.27 11.44L58.27 11.44Q58.35 11.57 58.35 11.75L58.35 11.75L58.35 11.75Q58.35 11.96 58.20 12.21L58.20 12.21L58.20 12.21Q58.05 12.45 57.74 12.65L57.74 12.65L57.74 12.65Q57.44 12.86 56.97 13.00L56.97 13.00L56.97 13.00Q56.51 13.13 55.89 13.13ZM59.46 6.08L59.42 6.08L59.42 5.49L62.92 5.49L62.92 6.08L62.74 6.08L62.74 6.08Q62.32 6.08 62.11 6.24L62.11 6.24L62.11 6.24Q61.90 6.41 61.90 6.75L61.90 6.75L61.90 6.75Q61.90 6.87 61.93 6.99L61.93 6.99L61.93 6.99Q61.95 7.11 62.01 7.27L62.01 7.27L62.96 9.91L62.96 9.91Q63.05 10.16 63.14 10.46L63.14 10.46L63.14 10.46Q63.24 10.75 63.32 11.04L63.32 11.04L63.32 11.04Q63.41 11.33 63.48 11.58L63.48 11.58L63.48 11.58Q63.55 11.84 63.57 12.02L63.57 12.02L63.62 12.02L63.62 12.02Q63.66 11.87 63.73 11.65L63.73 11.65L63.73 11.65Q63.81 11.42 63.91 11.16L63.91 11.16L63.91 11.16Q64.01 10.90 64.12 10.62L64.12 10.62L64.12 10.62Q64.22 10.35 64.32 10.10L64.32 10.10L65.32 7.37L65.32 7.37Q65.39 7.20 65.42 7.04L65.42 7.04L65.42 7.04Q65.45 6.88 65.45 6.77L65.45 6.77L65.45 6.77Q65.45 6.41 65.23 6.24L65.23 6.24L65.23 6.24Q65.00 6.08 64.53 6.08L64.53 6.08L64.43 6.08L64.43 5.49L67.43 5.49L67.43 6.08L67.26 6.08L67.26 6.08Q67.05 6.08 66.91 6.12L66.91 6.12L66.91 6.12Q66.77 6.17 66.65 6.29L66.65 6.29L66.65 6.29Q66.53 6.41 66.43 6.62L66.43 6.62L66.43 6.62Q66.32 6.84 66.19 7.17L66.19 7.17L63.98 13.00L62.71 13.00L60.46 6.82L60.46 6.82Q60.38 6.60 60.29 6.46L60.29 6.46L60.29 6.46Q60.20 6.32 60.08 6.23L60.08 6.23L60.08 6.23Q59.96 6.15 59.81 6.11L59.81 6.11L59.81 6.11Q59.66 6.08 59.46 6.08L59.46 6.08ZM71.32 6.10L71.32 6.10L71.32 6.10Q70.54 6.10 70.12 6.74L70.12 6.74L70.12 6.74Q69.70 7.37 69.62 8.59L69.62 8.59L72.84 8.59L72.84 8.59Q72.84 8.03 72.76 7.57L72.76 7.57L72.76 7.57Q72.68 7.12 72.50 6.79L72.50 6.79L72.50 6.79Q72.32 6.46 72.03 6.28L72.03 6.28L72.03 6.28Q71.74 6.10 71.32 6.10ZM71.49 13.13L71.49 13.13L71.49 13.13Q70.73 13.13 70.13 12.88L70.13 12.88L70.13 12.88Q69.52 12.62 69.10 12.13L69.10 12.13L69.10 12.13Q68.69 11.63 68.47 10.92L68.47 10.92L68.47 10.92Q68.24 10.21 68.24 9.30L68.24 9.30L68.24 9.30Q68.24 7.33 69.05 6.34L69.05 6.34L69.05 6.34Q69.86 5.35 71.35 5.35L71.35 5.35L71.35 5.35Q72.02 5.35 72.56 5.56L72.56 5.56L72.56 5.56Q73.10 5.78 73.48 6.20L73.48 6.20L73.48 6.20Q73.86 6.62 74.06 7.24L74.06 7.24L74.06 7.24Q74.26 7.87 74.26 8.70L74.26 8.70L74.26 9.34L69.60 9.34L69.60 9.34Q69.61 10.10 69.75 10.65L69.75 10.65L69.75 10.65Q69.89 11.20 70.15 11.56L70.15 11.56L70.15 11.56Q70.42 11.92 70.80 12.08L70.80 12.08L70.80 12.08Q71.18 12.25 71.68 12.25L71.68 12.25L71.68 12.25Q72.04 12.25 72.35 12.17L72.35 12.17L72.35 12.17Q72.67 12.09 72.92 11.95L72.92 11.95L72.92 11.95Q73.17 11.81 73.37 11.64L73.37 11.64L73.37 11.64Q73.56 11.46 73.68 11.27L73.68 11.27L73.68 11.27Q73.78 11.31 73.87 11.44L73.87 11.44L73.87 11.44Q73.95 11.57 73.95 11.75L73.95 11.75L73.95 11.75Q73.95 11.96 73.80 12.21L73.80 12.21L73.80 12.21Q73.65 12.45 73.34 12.65L73.34 12.65L73.34 12.65Q73.04 12.86 72.57 13.00L72.57 13.00L72.57 13.00Q72.11 13.13 71.49 13.13ZM75.15 12.41L75.33 12.41L75.33 12.41Q75.56 12.41 75.77 12.37L75.77 12.37L75.77 12.37Q75.98 12.34 76.14 12.23L76.14 12.23L76.14 12.23Q76.29 12.13 76.38 11.93L76.38 11.93L76.38 11.93Q76.47 11.73 76.47 11.40L76.47 11.40L76.47 3.90L76.47 3.90Q76.47 3.59 76.38 3.40L76.38 3.40L76.38 3.40Q76.29 3.21 76.13 3.11L76.13 3.11L76.13 3.11Q75.97 3.01 75.77 2.98L75.77 2.98L75.77 2.98Q75.56 2.95 75.33 2.95L75.33 2.95L75.15 2.95L75.15 2.36L77.79 2.36L77.79 11.40L77.79 11.40Q77.79 11.73 77.88 11.93L77.88 11.93L77.88 11.93Q77.97 12.13 78.13 12.23L78.13 12.23L78.13 12.23Q78.29 12.34 78.49 12.37L78.49 12.37L78.49 12.37Q78.70 12.41 78.94 12.41L78.94 12.41L79.12 12.41L79.12 13.00L75.15 13.00L75.15 12.41ZM86.61 9.23L86.61 9.23L86.61 9.23Q86.61 11.20 85.77 12.17L85.77 12.17L85.77 12.17Q84.94 13.13 83.32 13.13L83.32 13.13L83.32 13.13Q82.56 13.13 81.96 12.89L81.96 12.89L81.96 12.89Q81.36 12.65 80.94 12.17L80.94 12.17L80.94 12.17Q80.52 11.68 80.30 10.95L80.30 10.95L80.30 10.95Q80.08 10.21 80.08 9.23L80.08 9.23L80.08 9.23Q80.08 7.27 80.91 6.31L80.91 6.31L80.91 6.31Q81.74 5.35 83.36 5.35L83.36 5.35L83.36 5.35Q84.12 5.35 84.72 5.59L84.72 5.59L84.72 5.59Q85.33 5.82 85.75 6.31L85.75 6.31L85.75 6.31Q86.17 6.79 86.39 7.52L86.39 7.52L86.39 7.52Q86.61 8.24 86.61 9.23ZM81.43 9.23L81.43 9.23L81.43 9.23Q81.43 10.01 81.53 10.60L81.53 10.60L81.53 10.60Q81.63 11.20 81.86 11.60L81.86 11.60L81.86 11.60Q82.09 12.00 82.46 12.20L82.46 12.20L82.46 12.20Q82.82 12.41 83.35 12.41L83.35 12.41L83.35 12.41Q83.88 12.41 84.24 12.20L84.24 12.20L84.24 12.20Q84.60 12.00 84.83 11.60L84.83 11.60L84.83 11.60Q85.05 11.20 85.15 10.60L85.15 10.60L85.15 10.60Q85.25 10.01 85.25 9.23L85.25 9.23L85.25 9.23Q85.25 8.45 85.15 7.86L85.15 7.86L85.15 7.86Q85.05 7.27 84.82 6.88L84.82 6.88L84.82 6.88Q84.59 6.49 84.23 6.29L84.23 6.29L84.23 6.29Q83.86 6.09 83.34 6.09L83.34 6.09L83.34 6.09Q82.81 6.09 82.45 6.29L82.45 6.29L82.45 6.29Q82.09 6.49 81.86 6.88L81.86 6.88L81.86 6.88Q81.63 7.27 81.53 7.86L81.53 7.86L81.53 7.86Q81.43 8.45 81.43 9.23ZM92.11 6.25L92.11 6.25L92.11 6.25Q91.57 6.25 91.20 6.43L91.20 6.43L91.20 6.43Q90.84 6.61 90.62 6.98L90.62 6.98L90.62 6.98Q90.40 7.35 90.31 7.91L90.31 7.91L90.31 7.91Q90.21 8.47 90.21 9.23L90.21 9.23L90.21 9.23Q90.21 9.96 90.31 10.52L90.31 10.52L90.31 10.52Q90.40 11.08 90.62 11.46L90.62 11.46L90.62 11.46Q90.84 11.85 91.21 12.04L91.21 12.04L91.21 12.04Q91.57 12.24 92.13 12.24L92.13 12.24L92.13 12.24Q92.59 12.24 92.92 12.04L92.92 12.04L92.92 12.04Q93.24 11.85 93.45 11.46L93.45 11.46L93.45 11.46Q93.66 11.08 93.75 10.52L93.75 10.52L93.75 10.52Q93.85 9.95 93.85 9.21L93.85 9.21L93.85 9.21Q93.85 8.47 93.75 7.91L93.75 7.91L93.75 7.91Q93.66 7.36 93.45 6.99L93.45 6.99L93.45 6.99Q93.24 6.62 92.91 6.43L92.91 6.43L92.91 6.43Q92.58 6.25 92.11 6.25ZM95.21 9.23L95.21 9.23L95.21 9.23Q95.21 10.24 95.02 10.98L95.02 10.98L95.02 10.98Q94.83 11.72 94.47 12.20L94.47 12.20L94.47 12.20Q94.11 12.67 93.58 12.90L93.58 12.90L93.58 12.90Q93.04 13.13 92.35 13.13L92.35 13.13L92.35 13.13Q91.95 13.13 91.62 13.04L91.62 13.04L91.62 13.04Q91.29 12.95 91.03 12.79L91.03 12.79L91.03 12.79Q90.77 12.63 90.57 12.40L90.57 12.40L90.57 12.40Q90.36 12.17 90.21 11.90L90.21 11.90L90.16 11.90L90.16 11.90Q90.17 12.26 90.19 12.58L90.19 12.58L90.19 12.58Q90.19 12.71 90.20 12.85L90.20 12.85L90.20 12.85Q90.20 12.99 90.20 13.11L90.20 13.11L90.20 13.11Q90.21 13.23 90.21 13.33L90.21 13.33L90.21 13.33Q90.21 13.43 90.21 13.49L90.21 13.49L90.21 14.83L90.21 14.83Q90.21 15.13 90.31 15.32L90.31 15.32L90.31 15.32Q90.40 15.51 90.56 15.61L90.56 15.61L90.56 15.61Q90.71 15.71 90.92 15.74L90.92 15.74L90.92 15.74Q91.13 15.77 91.36 15.77L91.36 15.77L91.40 15.77L91.40 16.36L87.64 16.36L87.64 15.77L87.75 15.77L87.75 15.77Q87.99 15.77 88.19 15.74L88.19 15.74L88.19 15.74Q88.40 15.70 88.56 15.60L88.56 15.60L88.56 15.60Q88.71 15.49 88.80 15.29L88.80 15.29L88.80 15.29Q88.89 15.09 88.89 14.76L88.89 14.76L88.89 7.03L88.89 7.03Q88.89 6.73 88.80 6.54L88.80 6.54L88.80 6.54Q88.71 6.35 88.55 6.25L88.55 6.25L88.55 6.25Q88.40 6.15 88.19 6.11L88.19 6.11L88.19 6.11Q87.98 6.08 87.75 6.08L87.75 6.08L87.57 6.08L87.57 5.49L90.02 5.49L90.16 6.75L90.21 6.75L90.21 6.75Q90.37 6.43 90.57 6.17L90.57 6.17L90.57 6.17Q90.77 5.91 91.03 5.73L91.03 5.73L91.03 5.73Q91.29 5.55 91.62 5.45L91.62 5.45L91.62 5.45Q91.94 5.35 92.35 5.35L92.35 5.35L92.35 5.35Q93.04 5.35 93.58 5.58L93.58 5.58L93.58 5.58Q94.11 5.81 94.47 6.29L94.47 6.29L94.47 6.29Q94.83 6.76 95.02 7.49L95.02 7.49L95.02 7.49Q95.21 8.22 95.21 9.23ZM99.83 6.10L99.83 6.10L99.83 6.10Q99.05 6.10 98.63 6.74L98.63 6.74L98.63 6.74Q98.21 7.37 98.13 8.59L98.13 8.59L101.35 8.59L101.35 8.59Q101.35 8.03 101.27 7.57L101.27 7.57L101.27 7.57Q101.19 7.12 101.01 6.79L101.01 6.79L101.01 6.79Q100.83 6.46 100.54 6.28L100.54 6.28L100.54 6.28Q100.25 6.10 99.83 6.10ZM100.00 13.13L100.00 13.13L100.00 13.13Q99.24 13.13 98.63 12.88L98.63 12.88L98.63 12.88Q98.03 12.62 97.61 12.13L97.61 12.13L97.61 12.13Q97.19 11.63 96.97 10.92L96.97 10.92L96.97 10.92Q96.75 10.21 96.75 9.30L96.75 9.30L96.75 9.30Q96.75 7.33 97.56 6.34L97.56 6.34L97.56 6.34Q98.36 5.35 99.85 5.35L99.85 5.35L99.85 5.35Q100.53 5.35 101.07 5.56L101.07 5.56L101.07 5.56Q101.61 5.78 101.99 6.20L101.99 6.20L101.99 6.20Q102.36 6.62 102.56 7.24L102.56 7.24L102.56 7.24Q102.76 7.87 102.76 8.70L102.76 8.70L102.76 9.34L98.10 9.34L98.10 9.34Q98.12 10.10 98.26 10.65L98.26 10.65L98.26 10.65Q98.40 11.20 98.66 11.56L98.66 11.56L98.66 11.56Q98.92 11.92 99.31 12.08L99.31 12.08L99.31 12.08Q99.69 12.25 100.19 12.25L100.19 12.25L100.19 12.25Q100.55 12.25 100.86 12.17L100.86 12.17L100.86 12.17Q101.17 12.09 101.42 11.95L101.42 11.95L101.42 11.95Q101.68 11.81 101.87 11.64L101.87 11.64L101.87 11.64Q102.07 11.46 102.19 11.27L102.19 11.27L102.19 11.27Q102.29 11.31 102.37 11.44L102.37 11.44L102.37 11.44Q102.46 11.57 102.46 11.75L102.46 11.75L102.46 11.75Q102.46 11.96 102.31 12.21L102.31 12.21L102.31 12.21Q102.16 12.45 101.85 12.65L101.85 12.65L101.85 12.65Q101.54 12.86 101.08 13.00L101.08 13.00L101.08 13.00Q100.62 13.13 100.00 13.13ZM107.97 12.41L107.97 13.00L103.93 13.00L103.93 12.41L103.97 12.41L103.97 12.41Q104.21 12.41 104.42 12.37L104.42 12.37L104.42 12.37Q104.63 12.34 104.78 12.23L104.78 12.23L104.78 12.23Q104.94 12.13 105.03 11.93L105.03 11.93L105.03 11.93Q105.12 11.73 105.12 11.40L105.12 11.40L105.12 7.03L105.12 7.03Q105.12 6.73 105.03 6.54L105.03 6.54L105.03 6.54Q104.94 6.35 104.78 6.25L104.78 6.25L104.78 6.25Q104.62 6.15 104.42 6.11L104.42 6.11L104.42 6.11Q104.21 6.08 103.97 6.08L103.97 6.08L103.93 6.08L103.93 5.49L106.09 5.49L106.35 6.88L106.42 6.88L106.42 6.88Q106.56 6.56 106.70 6.29L106.70 6.29L106.70 6.29Q106.85 6.01 107.05 5.80L107.05 5.80L107.05 5.80Q107.26 5.59 107.57 5.47L107.57 5.47L107.57 5.47Q107.88 5.35 108.34 5.35L108.34 5.35L108.34 5.35Q109.11 5.35 109.48 5.62L109.48 5.62L109.48 5.62Q109.85 5.89 109.85 6.37L109.85 6.37L109.85 6.37Q109.85 6.59 109.78 6.77L109.78 6.77L109.78 6.77Q109.71 6.96 109.55 7.09L109.55 7.09L109.55 7.09Q109.40 7.23 109.15 7.30L109.15 7.30L109.15 7.30Q108.90 7.37 108.55 7.37L108.55 7.37L108.55 7.37Q108.55 6.79 108.38 6.53L108.38 6.53L108.38 6.53Q108.22 6.28 107.81 6.28L107.81 6.28L107.81 6.28Q107.55 6.28 107.34 6.42L107.34 6.42L107.34 6.42Q107.14 6.57 106.99 6.81L106.99 6.81L106.99 6.81Q106.83 7.05 106.73 7.37L106.73 7.37L106.73 7.37Q106.62 7.68 106.56 8.02L106.56 8.02L106.56 8.02Q106.49 8.35 106.46 8.67L106.46 8.67L106.46 8.67Q106.44 9.00 106.44 9.27L106.44 9.27L106.44 11.47L106.44 11.47Q106.44 11.78 106.53 11.97L106.53 11.97L106.53 11.97Q106.62 12.15 106.78 12.25L106.78 12.25L106.78 12.25Q106.93 12.35 107.14 12.38L107.14 12.38L107.14 12.38Q107.35 12.41 107.58 12.41L107.58 12.41L107.97 12.41ZM113.00 13.13L113.00 13.13L113.00 13.13Q112.48 13.13 112.05 13.04L112.05 13.04L112.05 13.04Q111.62 12.95 111.32 12.76L111.32 12.76L111.32 12.76Q111.02 12.57 110.86 12.29L110.86 12.29L110.86 12.29Q110.69 12.02 110.69 11.65L110.69 11.65L110.69 11.65Q110.69 11.37 110.79 11.18L110.79 11.18L110.79 11.18Q110.88 10.99 111.01 10.88L111.01 10.88L111.01 10.88Q111.15 10.77 111.30 10.73L111.30 10.73L111.30 10.73Q111.45 10.68 111.58 10.68L111.58 10.68L111.58 10.68Q111.58 11.05 111.65 11.38L111.65 11.38L111.65 11.38Q111.73 11.70 111.90 11.94L111.90 11.94L111.90 11.94Q112.08 12.18 112.37 12.32L112.37 12.32L112.37 12.32Q112.66 12.46 113.09 12.46L113.09 12.46L113.09 12.46Q113.46 12.46 113.75 12.37L113.75 12.37L113.75 12.37Q114.04 12.28 114.23 12.11L114.23 12.11L114.23 12.11Q114.43 11.94 114.53 11.71L114.53 11.71L114.53 11.71Q114.63 11.47 114.63 11.19L114.63 11.19L114.63 11.19Q114.63 10.93 114.55 10.74L114.55 10.74L114.55 10.74Q114.47 10.55 114.28 10.39L114.28 10.39L114.28 10.39Q114.08 10.23 113.75 10.06L113.75 10.06L113.75 10.06Q113.42 9.88 112.91 9.67L112.91 9.67L112.91 9.67Q112.37 9.43 111.97 9.20L111.97 9.20L111.97 9.20Q111.57 8.98 111.31 8.72L111.31 8.72L111.31 8.72Q111.05 8.46 110.92 8.13L110.92 8.13L110.92 8.13Q110.79 7.80 110.79 7.34L110.79 7.34L110.79 7.34Q110.79 6.86 110.98 6.49L110.98 6.49L110.98 6.49Q111.17 6.13 111.51 5.88L111.51 5.88L111.51 5.88Q111.86 5.63 112.35 5.50L112.35 5.50L112.35 5.50Q112.83 5.37 113.43 5.37L113.43 5.37L113.43 5.37Q113.93 5.37 114.31 5.47L114.31 5.47L114.31 5.47Q114.69 5.57 114.95 5.75L114.95 5.75L114.95 5.75Q115.21 5.92 115.34 6.16L115.34 6.16L115.34 6.16Q115.47 6.39 115.47 6.65L115.47 6.65L115.47 6.65Q115.47 7.03 115.21 7.26L115.21 7.26L115.21 7.26Q114.95 7.49 114.46 7.49L114.46 7.49L114.46 7.49Q114.46 6.79 114.17 6.40L114.17 6.40L114.17 6.40Q113.88 6.01 113.26 6.01L113.26 6.01L113.26 6.01Q112.90 6.01 112.65 6.09L112.65 6.09L112.65 6.09Q112.40 6.17 112.24 6.32L112.24 6.32L112.24 6.32Q112.08 6.47 112 6.68L112 6.68L112 6.68Q111.92 6.88 111.92 7.13L111.92 7.13L111.92 7.13Q111.92 7.40 112.02 7.59L112.02 7.59L112.02 7.59Q112.12 7.79 112.32 7.95L112.32 7.95L112.32 7.95Q112.53 8.11 112.86 8.27L112.86 8.27L112.86 8.27Q113.20 8.42 113.66 8.61L113.66 8.61L113.66 8.61Q114.21 8.85 114.61 9.07L114.61 9.07L114.61 9.07Q115.01 9.30 115.26 9.56L115.26 9.56L115.26 9.56Q115.52 9.83 115.64 10.17L115.64 10.17L115.64 10.17Q115.77 10.50 115.77 10.94L115.77 10.94L115.77 10.94Q115.77 11.48 115.57 11.89L115.57 11.89L115.57 11.89Q115.37 12.30 115.01 12.58L115.01 12.58L115.01 12.58Q114.65 12.86 114.14 13.00L114.14 13.00L114.14 13.00Q113.63 13.13 113.00 13.13Z" transform="matrix(4.285714285714286,0,0,4.285714285714286,0.000007084437783078101,92.88571323667253)"/></g><g id="ab483839-c4b8-4d4d-9dd9-b3e16c12cabe" fill="#000" stroke="none"><path d="M16 19.586l7.496-12.954H8.504zM7.496 12.414L0 25.368h14.992zM24.504 12.414l-7.496 12.954H32z" transform="matrix(4.803586662404586,0,0,4.803586662404586,172.1426134015266,-31.22538662899096)"/></g></svg>